<?xml version="1.0" standalone="no"?>
<!DOCTYPE svg PUBLIC "-//W3C//DTD SVG 20010904//EN"
 "http://www.w3.org/TR/2001/REC-SVG-20010904/DTD/svg10.dtd">
<svg version="1.0" xmlns="http://www.w3.org/2000/svg"
 width="260.000000pt" height="260.000000pt" viewBox="0 0 260.000000 260.000000"
 preserveAspectRatio="xMidYMid meet">
<metadata>
Created by potrace 1.14, written by Peter Selinger 2001-2017
</metadata>
<g transform="translate(0.000000,260.000000) scale(0.100000,-0.100000)"
fill="#000000" stroke="none">
<path d="M0 1300 l0 -1300 445 0 c245 0 445 2 445 5 0 3 -16 27 -36 55 -20 27
-33 50 -30 50 4 0 2 9 -5 21 -7 15 -8 24 0 32 7 7 7 16 0 30 -8 15 -7 23 5 35
15 15 16 14 16 -6 0 -13 7 -25 15 -28 8 -4 22 -21 31 -40 9 -19 23 -34 30 -34
8 0 14 -10 14 -25 0 -15 14 -38 35 -60 l36 -35 309 0 310 0 0 23 c0 18 -2 19
-10 7 -9 -14 -14 -7 -11 13 1 5 -3 6 -9 2 -5 -3 -10 0 -10 7 -1 7 -7 2 -14
-11 -9 -15 -15 -19 -18 -11 -3 10 -9 10 -26 1 -17 -9 -22 -9 -22 1 0 9 -3 9
-12 0 -15 -15 -45 -15 -50 0 -3 8 -11 7 -28 -5 -36 -25 -58 -23 -35 3 10 11
20 18 23 15 3 -3 11 0 19 6 7 6 13 8 13 3 0 -5 4 -4 8 2 4 6 29 21 55 33 26
13 46 26 43 28 -6 6 54 83 92 121 18 18 22 29 17 52 -7 34 2 73 15 65 5 -3 12
6 16 20 3 14 10 25 15 25 5 0 9 7 9 15 0 9 6 18 14 21 8 3 12 12 9 20 -3 8 -1
14 4 14 5 0 14 27 21 59 7 32 19 61 26 64 9 4 13 17 12 32 -2 15 3 29 13 35
14 8 13 9 -4 10 -11 0 -15 4 -10 8 12 9 69 171 62 178 -7 8 -65 -145 -83 -221
-20 -85 -80 -193 -111 -201 -12 -3 -27 -12 -34 -20 -12 -15 -76 -19 -97 -5
-10 6 -8 15 12 38 29 34 45 95 46 169 0 49 -2 52 -52 93 -43 35 -59 42 -85 39
-19 -2 -33 1 -33 7 0 5 -4 4 -9 -4 -7 -10 -22 -12 -60 -7 -64 8 -109 -9 -146
-58 -25 -33 -27 -41 -23 -115 3 -49 11 -87 21 -101 13 -19 14 -25 2 -36 -17
-17 -37 -18 -53 -2 -6 6 -19 13 -28 14 -14 2 -14 1 -1 -14 33 -38 69 -122 63
-147 -8 -30 16 -86 51 -121 20 -20 22 -26 11 -44 -7 -11 -19 -20 -27 -20 -9 0
-6 7 9 20 25 22 20 26 -12 9 -18 -9 -19 -8 -13 10 3 12 3 21 -2 22 -4 0 -20 2
-35 4 -17 2 -28 -1 -28 -8 0 -7 -4 -6 -10 3 -5 8 -7 23 -4 32 4 13 1 16 -10
12 -9 -4 -25 5 -41 22 -23 25 -30 46 -27 86 1 9 -6 19 -16 22 -11 4 -18 18
-19 38 -2 19 -12 40 -26 52 -13 12 -22 26 -20 32 2 6 -5 14 -17 17 -11 3 -23
13 -27 24 -3 10 -9 20 -13 23 -3 3 -14 22 -23 43 -10 20 -22 37 -27 37 -6 0
-10 7 -10 15 0 8 -7 15 -15 15 -10 0 -15 11 -16 33 0 17 -3 27 -5 20 -8 -18
-34 -4 -34 18 0 12 -5 16 -15 13 -26 -11 -16 16 19 50 33 31 34 34 23 67 -7
19 -16 40 -21 48 -5 8 -4 16 5 22 8 4 16 3 20 -3 6 -10 26 -8 75 7 18 5 22 2
27 -22 4 -18 0 -33 -10 -43 -14 -13 -15 -13 -8 0 4 8 -7 1 -25 -16 -31 -31
-34 -61 -4 -50 8 3 14 0 14 -6 0 -6 20 10 44 36 28 31 45 43 49 34 2 -7 7 -10
11 -7 3 3 -2 27 -11 52 -14 37 -23 48 -46 53 -31 6 -32 31 -1 25 17 -3 18 -1
4 15 -28 35 -40 64 -40 94 0 18 -8 37 -20 47 -14 13 -17 20 -8 30 15 19 28 16
21 -5 -6 -15 -4 -15 15 2 32 28 27 38 -13 30 -39 -7 -47 2 -12 15 20 8 20 10
4 16 -11 5 -25 1 -36 -9 -22 -20 -32 -21 -24 -1 5 14 2 14 -21 4 -15 -7 -25
-18 -22 -25 3 -8 0 -16 -5 -20 -6 -4 -8 -20 -5 -39 4 -19 2 -36 -4 -40 -5 -3
-9 -28 -9 -55 1 -37 -4 -55 -21 -77 l-23 -28 7 39 c7 34 5 38 -7 28 -7 -7 -17
-9 -20 -5 -4 3 -9 -2 -13 -11 -8 -21 -24 -21 -24 0 0 11 -5 14 -16 10 -11 -4
-15 -2 -11 8 3 7 1 18 -5 24 -8 8 -8 15 1 26 8 10 9 16 1 21 -6 4 -9 14 -8 23
2 11 -3 16 -14 14 -10 -2 -18 2 -18 8 0 5 6 10 14 10 20 0 29 30 14 47 -10 13
-7 19 15 35 15 11 27 26 27 33 0 20 40 55 62 55 16 0 23 -11 19 -32 -2 -12 14
-9 35 7 15 11 16 15 4 16 -8 0 -4 5 10 9 24 8 24 8 3 9 -28 1 -29 12 -3 36 11
10 20 31 20 47 0 15 5 28 11 28 5 0 7 -4 4 -10 -3 -5 -2 -10 4 -10 6 0 7 15 4
35 -4 26 -2 35 9 35 8 0 28 16 45 35 32 36 64 45 83 23 6 -7 24 -32 40 -55 20
-28 41 -45 62 -51 21 -5 45 -23 64 -49 l32 -42 4 67 c3 40 -1 76 -8 92 -29 60
-25 93 6 55 7 -8 17 -15 22 -15 15 0 -2 43 -25 64 -12 10 -21 22 -20 26 4 15
-33 6 -55 -13 -17 -16 -25 -18 -34 -9 -15 15 -63 16 -89 1 -35 -18 -43 -4 -14
26 15 17 31 30 35 30 5 0 12 3 16 8 12 12 59 8 80 -8 25 -19 44 -19 44 1 0 9
5 12 12 8 6 -4 8 -3 5 3 -4 6 -17 8 -29 6 -19 -4 -23 0 -23 21 0 28 14 33 33
14 7 -7 12 -8 12 -2 0 14 -56 54 -75 54 -19 0 -57 -19 -66 -32 -3 -5 -9 -3
-12 6 -4 9 -1 16 6 16 7 1 5 6 -5 14 -10 7 -15 16 -11 19 3 4 -3 7 -15 7 -12
0 -22 -4 -22 -9 0 -5 -13 -12 -30 -16 -16 -4 -30 -13 -30 -20 0 -18 -28 -27
-50 -15 -25 13 -40 12 -17 -1 9 -6 15 -15 11 -21 -4 -6 1 -8 16 -3 16 5 21 4
18 -6 -3 -8 -13 -16 -24 -17 -10 -2 -23 -9 -29 -14 -7 -8 -5 -9 7 -5 10 4 17
3 17 -1 -3 -20 3 -32 16 -32 17 0 20 -16 5 -25 -17 -10 -11 -25 8 -18 14 5 13
3 -3 -10 -11 -9 -27 -16 -35 -17 -13 0 -13 1 0 10 13 8 12 10 -4 10 -17 0 -17
2 5 21 l24 21 -32 -7 c-31 -6 -33 -5 -33 19 0 14 -5 26 -12 26 -6 0 -3 6 8 14
27 20 11 31 -18 12 -14 -9 -28 -13 -31 -9 -4 3 -7 0 -7 -9 0 -16 -41 -56 -77
-75 -13 -6 -23 -8 -23 -2 0 5 5 9 11 9 5 0 7 5 4 10 -3 6 -15 10 -26 10 -10 0
-19 5 -19 10 0 6 7 10 16 10 9 0 12 5 8 11 -5 8 1 10 20 7 15 -3 24 -2 19 2
-16 16 -103 15 -103 0 0 -7 8 -7 23 1 18 9 20 9 10 -1 -9 -10 -9 -20 2 -46 11
-27 11 -35 1 -44 -8 -5 -21 -8 -29 -4 -11 4 -16 0 -16 -13 0 -10 -3 -30 -6
-45 -7 -25 -5 -26 30 -25 21 1 40 -5 45 -13 10 -17 3 -33 -11 -24 -25 15 -70
-54 -73 -111 -1 -14 -9 -21 -28 -23 -16 -2 -28 -8 -28 -14 0 -6 -10 -8 -25 -4
-19 5 -27 2 -32 -11 -4 -10 -11 -21 -17 -25 -7 -5 -7 -8 2 -8 7 0 15 7 18 15
5 12 9 12 29 -1 15 -10 32 -13 46 -9 21 7 22 5 16 -29 -3 -20 -2 -36 4 -36 5
0 9 6 9 13 0 8 3 7 9 -3 6 -8 7 -18 5 -22 -3 -4 0 -8 5 -8 20 0 11 -26 -22
-62 -17 -20 -43 -58 -57 -85 -24 -46 -48 -58 -41 -19 2 14 -2 17 -14 13 -11
-5 -14 -3 -9 5 5 7 2 9 -9 5 -14 -5 -15 -3 -5 19 10 22 9 27 -5 35 -9 6 -17
15 -17 20 0 6 5 7 12 3 7 -5 8 -3 3 6 -4 7 -10 29 -12 49 -2 20 -8 38 -13 39
-17 6 -11 28 15 52 14 13 25 28 24 34 0 6 -3 5 -6 -1 -2 -7 -13 -13 -23 -13
-20 0 -34 39 -25 73 2 12 2 16 -1 10 -3 -7 -10 -13 -15 -13 -12 0 0 100 14
118 7 8 6 20 -1 37 -6 13 -7 27 -3 30 5 3 7 13 4 24 -2 10 3 25 11 34 9 8 16
21 16 27 0 6 12 15 26 20 14 6 22 15 19 20 -4 6 -1 18 6 27 8 9 14 21 14 27 2
17 18 50 28 58 6 3 21 0 33 -9 22 -14 25 -12 71 31 26 25 51 46 56 46 4 0 5 5
1 11 -3 6 7 25 24 42 16 18 43 47 60 65 17 18 45 35 62 39 23 4 28 8 18 15 -9
7 -4 8 16 3 24 -5 28 -3 22 11 -5 14 -4 15 8 5 20 -17 78 17 70 42 -3 10 0 17
8 17 8 0 13 13 14 37 0 27 8 42 30 60 16 12 36 23 44 23 26 0 23 49 -6 83 -16
18 -22 33 -15 35 7 2 5 12 -7 27 -22 28 -19 100 4 91 8 -3 21 -9 31 -13 10 -4
14 -3 10 4 -4 6 -2 13 4 15 12 4 -8 58 -21 58 -4 0 -10 9 -13 20 -4 17 -2 20
14 15 15 -5 19 -1 19 15 0 18 4 20 23 14 21 -6 21 -6 5 13 -10 11 -18 25 -18
31 0 9 -125 12 -500 12 l-500 0 0 -1300z m556 1159 c3 -5 1 -9 -5 -9 -17 0
-41 12 -41 20 0 10 38 1 46 -11z m-9 -25 c-3 -3 -12 -4 -19 -1 -8 3 -5 6 6 6
11 1 17 -2 13 -5z m28 -4 c3 -5 1 -10 -4 -10 -6 0 -11 5 -11 10 0 6 2 10 4 10
3 0 8 -4 11 -10z m-20 -35 c76 -7 135 -32 117 -49 -4 -4 2 -14 13 -22 16 -12
17 -17 7 -23 -19 -11 -17 -19 9 -42 27 -23 18 -35 -33 -44 -25 -5 -38 -4 -38
4 0 6 -9 11 -20 11 -11 0 -20 5 -20 10 0 6 -7 10 -15 10 -37 0 -96 26 -101 45
-4 11 -14 28 -22 38 -14 15 -14 21 -3 39 11 18 11 20 -3 15 -9 -4 -16 -3 -16
2 0 14 13 21 29 17 9 -2 52 -8 96 -11z m-65 -215 c0 -5 -8 -10 -17 -10 -15 0
-16 2 -3 10 19 12 20 12 20 0z m69 -95 c-2 -2 -24 -5 -48 -7 -54 -4 -62 11
-27 47 l26 26 26 -31 c15 -17 25 -32 23 -35z m226 -64 c-20 -18 -51 -21 -71
-6 -18 13 -15 14 31 15 29 0 45 -4 40 -9z m-265 -31 c-6 -11 -17 -20 -25 -20
-13 0 -13 3 -3 20 7 11 19 20 26 20 10 0 10 -5 2 -20z m20 -140 c0 -5 -4 -10
-10 -10 -5 0 -10 5 -10 10 0 6 5 10 10 10 6 0 10 -4 10 -10z m305 -210 c-3 -5
-12 -10 -18 -10 -7 0 -6 4 3 10 19 12 23 12 15 0z m245 -90 c0 -5 -4 -10 -10
-10 -5 0 -10 5 -10 10 0 6 5 10 10 10 6 0 10 -4 10 -10z m-482 -21 c7 -12 11
-23 9 -25 -6 -6 -37 25 -37 37 0 16 15 10 28 -12z m445 -20 c5 -17 11 -20 31
-17 15 3 27 0 30 -7 12 -32 -53 -48 -89 -22 -13 10 -16 21 -11 40 8 32 31 35
39 6z m-584 -525 c-11 -31 -5 -42 15 -25 12 10 15 8 18 -11 3 -20 8 -23 41
-22 31 2 37 -1 37 -18 0 -17 -3 -18 -15 -8 -12 10 -15 10 -16 -1 0 -8 -4 -5
-9 6 -7 18 -8 18 -15 -7 -4 -15 -13 -32 -20 -38 -8 -6 -11 -19 -8 -28 3 -9 3
-14 -2 -10 -4 4 -14 3 -22 -3 -10 -9 -13 -6 -13 16 0 24 -2 26 -16 14 -15 -12
-16 -8 -12 47 3 33 13 73 23 87 22 34 27 34 14 1z m111 -114 c0 -5 -5 -10 -11
-10 -5 0 -7 5 -4 10 3 6 8 10 11 10 2 0 4 -4 4 -10z m360 -5 c0 -8 -4 -15 -10
-15 -5 0 -10 7 -10 15 0 8 5 15 10 15 6 0 10 -7 10 -15z m425 -205 c0 -9 -8
-14 -20 -12 -35 5 -46 12 -40 23 10 15 60 7 60 -11z m35 10 c0 -5 -5 -10 -11
-10 -5 0 -7 5 -4 10 3 6 8 10 11 10 2 0 4 -4 4 -10z m195 -357 c0 -34 -3 -56
-6 -51 -4 6 -17 -5 -30 -25 -20 -30 -30 -37 -56 -37 -18 0 -33 -4 -33 -10 0
-5 8 -10 18 -10 14 0 15 -2 2 -10 -8 -5 -24 -9 -35 -9 -13 0 -15 3 -6 6 11 4
11 7 0 14 -7 4 -21 3 -30 -2 -19 -10 -106 5 -147 24 -35 17 -102 167 -74 167
4 0 26 -19 50 -42 30 -28 42 -47 39 -60 -6 -21 31 -42 57 -32 7 3 16 -2 19
-10 8 -20 41 -20 61 0 9 8 20 13 25 10 16 -11 59 19 70 49 18 49 51 97 64 92
7 -2 12 -26 12 -64z m-765 -43 c0 -5 -4 -10 -10 -10 -5 0 -10 5 -10 10 0 6 5
10 10 10 6 0 10 -4 10 -10z m348 -167 c-2 -9 -11 -17 -20 -19 -14 -2 -15 1 -5
17 15 23 30 25 25 2z m102 -4 c0 -14 -17 -10 -23 5 -4 10 -1 13 9 9 7 -3 14
-9 14 -14z m50 -13 c0 -11 -19 -15 -25 -6 -3 5 1 10 9 10 9 0 16 -2 16 -4z
m-45 -16 c3 -5 -1 -20 -9 -32 -9 -12 -16 -17 -16 -11 0 7 5 15 10 18 6 3 10
11 10 16 0 12 -62 -21 -73 -38 -9 -15 -27 -17 -27 -3 0 11 70 60 87 60 6 0 15
-4 18 -10z"/>
<path d="M505 2340 c3 -5 13 -10 21 -10 8 0 12 5 9 10 -3 6 -13 10 -21 10 -8
0 -12 -4 -9 -10z"/>
<path d="M1785 2590 c3 -5 8 -10 11 -10 2 0 4 5 4 10 0 6 -5 10 -11 10 -5 0
-7 -4 -4 -10z"/>
<path d="M1811 2584 c0 -11 3 -14 6 -6 3 7 2 16 -1 19 -3 4 -6 -2 -5 -13z"/>
<path d="M1830 2573 c0 -34 -20 -70 -20 -38 0 12 -3 16 -8 9 -4 -6 -24 -17
-44 -23 -28 -9 -38 -18 -38 -34 0 -18 -2 -19 -10 -7 -8 12 -10 11 -10 -7 0
-32 3 -38 18 -37 6 1 12 -3 12 -9 0 -5 9 -2 19 7 11 10 24 15 29 12 6 -3 9
-55 8 -116 -1 -61 1 -114 4 -118 3 -4 16 -8 29 -10 25 -4 85 -66 87 -91 3 -47
4 -49 25 -44 16 5 20 2 17 -13 -3 -16 2 -19 38 -16 30 3 43 -1 47 -12 4 -11
15 -13 41 -9 30 5 39 1 70 -30 20 -20 36 -41 36 -47 0 -5 5 -10 10 -10 6 0 10
-8 10 -19 0 -10 7 -24 15 -31 8 -7 18 -30 21 -52 7 -38 24 -62 32 -40 2 7 11
8 28 2 19 -7 26 -6 30 5 4 10 14 5 36 -21 16 -19 35 -34 42 -34 6 0 28 -11 49
-25 20 -14 36 -22 35 -18 -2 4 2 8 7 8 5 0 9 -4 7 -9 -4 -13 29 -46 47 -46 13
0 13 2 2 9 -8 6 -9 11 -3 15 11 7 2 47 -21 94 -8 17 -8 31 1 55 6 18 12 73 13
122 4 126 6 133 35 127 l24 -4 0 266 0 266 -385 0 -385 0 0 -27z m32 -105 c-9
-9 -15 -9 -24 1 -11 11 -10 13 5 8 10 -4 17 -2 17 5 0 6 3 8 7 5 4 -4 1 -13
-5 -19z m-42 -84 c0 -8 -4 -12 -10 -9 -5 3 -10 13 -10 21 0 8 5 12 10 9 6 -3
10 -13 10 -21z m424 -8 c-1 -9 3 -16 9 -16 6 0 7 -3 4 -6 -3 -4 -2 -15 4 -26
9 -16 7 -20 -10 -25 -12 -3 -21 -12 -21 -19 0 -8 -5 -14 -11 -14 -6 0 -9 -6
-6 -14 3 -9 -4 -21 -19 -30 -13 -9 -24 -12 -24 -6 0 5 -5 10 -11 10 -5 0 -7
-4 -4 -10 3 -5 1 -10 -4 -10 -6 0 -11 5 -11 10 0 22 -2 25 -23 33 -17 6 -18
10 -8 16 9 6 11 18 7 35 -6 25 -4 26 33 26 30 0 47 7 66 26 21 21 24 29 13 36
-10 8 -10 9 2 5 8 -2 14 -12 14 -21z m-433 -63 c-10 -17 -10 -16 -11 3 0 23
13 41 18 25 2 -6 -1 -18 -7 -28z m652 -35 c-11 -13 -18 -29 -16 -35 3 -7 -3
-13 -12 -13 -11 0 -15 -5 -11 -15 3 -8 1 -15 -5 -15 -6 0 -7 -4 -4 -10 3 -5
-1 -10 -9 -10 -20 0 -20 29 -1 54 8 11 15 28 15 37 0 19 13 27 44 28 19 1 19
0 -1 -21z m51 -150 c-4 -52 -11 -79 -25 -93 -11 -11 -19 -14 -19 -7 0 18 -27
15 -34 -4 -4 -9 -1 -23 5 -30 14 -17 -5 -44 -30 -44 -24 0 -87 62 -85 85 2 51
4 55 28 55 14 0 28 5 31 10 13 21 43 10 50 -17 6 -24 8 -26 16 -10 6 10 14 15
20 12 5 -4 9 0 10 7 0 7 2 23 5 36 3 16 0 21 -8 16 -7 -5 -8 -3 -3 6 8 14 38
48 43 49 1 1 0 -32 -4 -71z m70 -17 c3 -5 0 -11 -8 -14 -15 -6 -26 1 -26 15 0
11 27 10 34 -1z m-117 -7 c-3 -3 -12 -4 -19 -1 -8 3 -5 6 6 6 11 1 17 -2 13
-5z"/>
<path d="M1505 2570 c3 -5 8 -10 11 -10 2 0 4 5 4 10 0 6 -5 10 -11 10 -5 0
-7 -4 -4 -10z"/>
<path d="M1120 2561 c0 -5 5 -13 10 -16 6 -3 10 -2 10 4 0 5 -4 13 -10 16 -5
3 -10 2 -10 -4z"/>
<path d="M1591 2554 c0 -11 3 -14 6 -6 3 7 2 16 -1 19 -3 4 -6 -2 -5 -13z"/>
<path d="M1460 2526 c0 -9 5 -16 10 -16 6 0 10 4 10 9 0 6 -4 13 -10 16 -5 3
-10 -1 -10 -9z"/>
<path d="M1500 2521 c0 -13 -9 -25 -21 -29 -11 -5 -20 -11 -20 -15 2 -18 0
-19 -15 -6 -13 11 -15 11 -13 -2 5 -30 -13 -68 -32 -66 -23 2 -24 15 -2 39 13
14 14 21 5 30 -9 9 -12 8 -12 -5 0 -11 -11 -20 -30 -23 -23 -5 -30 -12 -30
-30 0 -12 5 -26 10 -29 6 -3 10 4 10 16 0 16 3 20 10 13 7 -7 6 -20 -5 -40
-18 -35 -20 -90 -2 -97 9 -4 9 -8 -1 -15 -11 -7 -8 -15 14 -38 18 -19 25 -23
21 -11 -4 10 -7 23 -7 28 0 6 -4 7 -10 4 -5 -3 -10 -2 -10 4 0 13 40 35 48 26
4 -3 7 -24 7 -46 0 -22 1 -36 3 -30 5 14 32 14 32 1 0 -6 -7 -13 -15 -16 -8
-4 -15 -12 -15 -20 0 -8 6 -11 15 -8 10 4 15 0 15 -14 0 -16 -5 -20 -20 -17
-11 2 -18 0 -15 -6 4 -5 1 -9 -5 -9 -6 0 -8 -5 -4 -11 3 -6 0 -15 -7 -20 -12
-8 -12 -10 0 -18 11 -7 10 -10 -5 -13 -10 -2 -25 3 -32 12 -11 13 -12 12 -7
-7 7 -24 -9 -33 -18 -10 -4 9 -6 8 -6 -2 -1 -11 -4 -11 -17 0 -14 12 -16 11
-13 -6 6 -27 -31 -61 -58 -57 -19 4 -23 0 -23 -22 0 -16 6 -26 14 -26 25 0 37
-64 14 -73 -7 -3 3 -4 23 -3 20 2 41 6 48 10 13 9 13 10 15 -36 2 -30 -2 -38
-15 -38 -26 0 -28 -20 -8 -72 10 -27 14 -48 9 -48 -6 0 -10 9 -10 20 0 11 -4
20 -9 20 -5 0 -16 16 -25 35 -9 19 -18 35 -19 35 -1 0 -2 -13 -3 -30 -1 -16 3
-27 7 -24 4 2 13 -5 19 -16 9 -16 8 -20 -6 -20 -10 0 -14 -5 -10 -15 6 -17
-19 -21 -29 -5 -3 6 -1 10 4 10 6 0 11 7 11 15 0 8 -4 15 -10 15 -5 0 -10 7
-10 15 0 19 -7 19 -34 -2 -23 -19 -24 -53 0 -53 14 0 39 -46 35 -64 -4 -18 9
-56 20 -56 6 0 7 5 3 12 -5 8 0 9 14 6 12 -4 22 -5 22 -4 0 0 -4 15 -9 32 -7
26 -6 30 10 29 10 -1 22 -4 25 -8 12 -12 24 -8 24 9 0 8 4 13 9 10 5 -3 14 1
21 9 14 17 35 21 25 5 -12 -20 7 -32 21 -13 12 17 13 16 14 -7 0 -34 12 -51
29 -41 7 5 10 14 7 20 -4 6 -12 9 -17 6 -5 -4 -9 1 -9 9 0 8 5 18 10 21 8 5 7
11 -1 21 -6 8 -9 17 -5 21 3 4 12 -8 18 -25 7 -18 17 -31 22 -29 12 4 15 46 4
53 -4 3 -6 10 -3 15 8 12 48 -16 51 -36 1 -8 -4 -15 -11 -15 -8 0 -12 -13 -11
-40 1 -42 14 -54 23 -20 10 36 23 21 24 -27 2 -57 15 -119 19 -88 2 11 2 28 2
38 -1 10 3 15 8 12 14 -9 42 15 37 30 -3 6 4 29 15 50 27 54 32 85 14 85 -8 0
-17 7 -20 16 -3 8 -2 12 4 9 6 -3 7 1 4 9 -3 9 -10 14 -14 11 -4 -3 -13 2 -20
10 -10 12 -10 15 1 15 9 1 8 4 -4 11 -9 6 -27 7 -40 3 -19 -6 -20 -5 -8 10 7
9 19 16 27 16 12 0 60 58 53 64 -2 2 -13 8 -24 14 -25 14 -5 15 29 2 17 -6 27
-6 32 2 4 7 3 8 -4 4 -7 -4 -12 -1 -12 8 0 9 -5 16 -11 16 -5 0 -8 4 -4 10 3
5 12 7 20 4 8 -3 22 2 32 11 16 17 16 18 -2 31 -10 8 -22 14 -27 14 -4 0 -8 9
-8 20 0 22 15 27 23 8 3 -7 6 -3 6 10 1 19 5 21 28 16 22 -6 25 -4 20 10 -4
10 -7 22 -7 27 0 5 -5 9 -11 9 -6 0 -8 -9 -4 -20 7 -21 -4 -21 -52 3 -25 11
-46 1 -24 -12 11 -7 11 -19 2 -62 -15 -70 -25 -81 -59 -66 l-26 12 30 5 c21 4
29 11 30 28 1 12 -5 27 -12 33 -8 6 -14 18 -14 25 0 8 -7 14 -15 14 -8 0 -15
-4 -15 -10 0 -5 -7 -10 -15 -10 -8 0 -15 9 -15 20 0 13 -5 18 -15 14 -8 -4
-15 -12 -15 -20 0 -8 -5 -14 -11 -14 -6 0 -8 9 -4 20 3 11 2 20 -4 20 -10 0
-27 107 -19 116 10 9 38 -8 38 -24 0 -8 3 -13 6 -9 4 3 1 21 -5 39 -12 35 -10
34 37 -28 18 -23 32 -47 32 -53 0 -6 6 -10 13 -9 7 2 12 -7 11 -19 0 -14 5
-23 14 -23 8 0 12 6 8 15 -3 8 -1 15 4 15 6 0 10 8 10 18 -1 23 -25 54 -35 44
-4 -4 -5 3 -2 16 4 19 3 21 -9 11 -11 -9 -14 -8 -14 9 0 11 -12 29 -26 39 -21
15 -26 28 -28 68 -2 30 -7 49 -14 48 -8 -2 -8 6 -1 27 6 16 9 37 6 47 -4 14
-5 13 -6 -4 0 -13 -7 -23 -15 -23 -8 0 -16 -6 -18 -12 -3 -7 -7 -2 -10 10 -4
16 -2 22 9 22 9 0 13 6 10 14 -8 20 32 33 44 15 7 -12 9 -11 10 1 1 8 0 20 -1
25 -1 6 -2 22 -2 37 0 15 -6 32 -14 39 -11 9 -14 7 -14 -10z m-36 -273 c-5 -7
-10 -4 -16 11 -4 12 -11 20 -15 18 -5 -3 -9 11 -10 31 l-2 36 25 -42 c14 -23
22 -47 18 -54z m-87 40 c-3 -8 -6 -5 -6 6 -1 11 2 17 5 13 3 -3 4 -12 1 -19z
m120 -50 c-3 -8 -6 -5 -6 6 -1 11 2 17 5 13 3 -3 4 -12 1 -19z m-17 -24 c0 -8
-4 -12 -10 -9 -5 3 -10 10 -10 16 0 5 5 9 10 9 6 0 10 -7 10 -16z m-20 -138
c0 -3 -7 -6 -15 -6 -9 0 -15 9 -15 21 0 18 2 19 15 5 8 -8 15 -17 15 -20z
m-30 -40 c0 -3 -4 -8 -10 -11 -5 -3 -10 -1 -10 4 0 6 5 11 10 11 6 0 10 -2 10
-4z m-93 -45 c-7 -2 -17 -10 -23 -17 -10 -13 -12 -12 -18 1 -3 9 0 15 8 15 8
0 17 8 20 17 6 15 8 15 16 3 6 -10 5 -16 -3 -19z m149 -38 c-2 -2 -11 -1 -20
3 -17 7 -22 24 -6 24 6 0 10 8 11 18 0 9 5 4 10 -12 4 -17 7 -31 5 -33z m56
15 c-12 -12 -32 -2 -32 15 0 8 3 8 9 -1 6 -11 10 -10 16 5 5 13 9 14 12 5 3
-8 1 -18 -5 -24z m48 18 c0 -2 -7 -9 -15 -16 -13 -11 -14 -10 -9 4 5 14 24 23
24 12z m-304 -41 c2 -26 -10 -33 -21 -15 -4 6 -1 17 5 25 16 19 15 19 16 -10z
m119 5 c3 -5 2 -10 -4 -10 -5 0 -13 5 -16 10 -3 6 -2 10 4 10 5 0 13 -4 16
-10z m35 -45 c-7 -9 -8 -15 -2 -15 5 0 12 -9 15 -20 3 -12 1 -18 -5 -14 -7 5
-9 -3 -4 -22 5 -24 4 -26 -5 -11 -15 26 -24 111 -10 102 6 -3 11 0 12 7 0 10
2 10 6 0 3 -7 -1 -19 -7 -27z m83 28 c-7 -2 -19 -2 -25 0 -7 3 -2 5 12 5 14 0
19 -2 13 -5z m-33 -63 c0 -5 -2 -10 -4 -10 -3 0 -8 5 -11 10 -3 6 -1 10 4 10
6 0 11 -4 11 -10z m120 -18 c0 -5 -9 -17 -20 -27 -20 -18 -20 -17 -20 8 0 20
5 27 20 27 11 0 20 -4 20 -8z m-60 -22 c0 -5 -2 -10 -4 -10 -3 0 -8 5 -11 10
-3 6 -1 10 4 10 6 0 11 -4 11 -10z m-176 -25 c-4 -8 -7 -15 -9 -15 -2 0 -5 7
-9 15 -3 9 0 15 9 15 9 0 12 -6 9 -15z m142 -23 c-9 -8 -26 10 -26 26 1 15 2
15 15 -2 8 -11 13 -21 11 -24z m-180 -22 c0 -12 -4 -16 -9 -11 -5 5 -6 14 -3
20 10 15 12 14 12 -9z m189 0 c3 -5 -1 -10 -9 -10 -9 0 -16 5 -16 10 0 6 4 10
9 10 6 0 13 -4 16 -10z m71 -15 c1 -14 -2 -25 -7 -25 -10 0 -12 33 -2 43 3 4
7 7 7 7 1 0 2 -11 2 -25z m-58 -25 c-7 -10 -14 -17 -17 -15 -4 4 18 35 25 35
2 0 -1 -9 -8 -20z m76 -25 c23 -17 14 -45 -14 -45 -11 0 -20 -7 -20 -15 0 -8
-4 -15 -10 -15 -20 0 -3 45 18 48 12 2 22 7 22 12 0 13 -28 20 -33 7 -2 -6 -6
-4 -10 6 -8 21 20 23 47 2z m-249 -25 c-4 -12 -9 -19 -12 -17 -3 3 -2 15 2 27
4 12 9 19 12 17 3 -3 2 -15 -2 -27z m-65 -20 c0 -5 -4 -10 -10 -10 -5 0 -10 5
-10 10 0 6 5 10 10 10 6 0 10 -4 10 -10z"/>
<path d="M1384 2516 c-8 -22 3 -33 18 -18 9 9 9 15 0 24 -9 9 -13 7 -18 -6z"/>
<path d="M1420 2520 c0 -5 5 -10 10 -10 6 0 10 5 10 10 0 6 -4 10 -10 10 -5 0
-10 -4 -10 -10z"/>
<path d="M1626 2502 c-7 -12 28 -44 39 -35 8 7 6 0 -12 -44 -6 -17 -6 -17 9
-2 21 20 24 38 14 68 -6 18 -10 21 -17 10 -8 -12 -10 -12 -18 0 -5 8 -11 9
-15 3z"/>
<path d="M1540 2486 c0 -9 5 -16 11 -16 7 0 8 -11 4 -31 -4 -17 -8 -53 -8 -81
-2 -49 -1 -51 27 -55 26 -4 28 -2 17 11 -7 9 -11 22 -8 30 3 7 0 19 -6 25 -16
16 1 27 23 13 17 -10 20 -10 20 7 0 11 5 21 12 23 7 3 9 14 4 34 -7 26 -9 27
-20 12 -15 -20 -26 -14 -26 14 0 10 -4 18 -9 18 -5 0 -16 3 -25 6 -11 4 -16 1
-16 -10z m55 -66 c3 -5 -1 -10 -10 -10 -9 0 -13 5 -10 10 3 6 8 10 10 10 2 0
7 -4 10 -10z"/>
<path d="M1009 2452 c4 -14 13 -28 21 -30 9 -3 11 1 7 12 -4 10 -7 21 -7 26 0
4 -6 10 -14 13 -11 4 -12 -1 -7 -21z"/>
<path d="M1306 2369 c3 -6 0 -15 -7 -20 -18 -11 -6 -21 15 -13 20 8 21 44 0
44 -8 0 -12 -5 -8 -11z"/>
<path d="M1678 2369 c-10 -5 -18 -14 -18 -18 0 -12 34 -9 42 3 17 26 6 33 -24
15z"/>
<path d="M1597 2345 c-4 -8 -2 -17 3 -20 6 -4 10 3 10 14 0 25 -6 27 -13 6z"/>
<path d="M1250 2300 c0 -5 7 -10 15 -10 8 0 15 5 15 10 0 6 -7 10 -15 10 -8 0
-15 -4 -15 -10z"/>
<path d="M1290 2200 c0 -5 4 -10 9 -10 6 0 13 5 16 10 3 6 -1 10 -9 10 -9 0
-16 -4 -16 -10z"/>
<path d="M1637 2161 c-2 -10 -1 -25 4 -32 6 -10 9 -4 9 19 0 36 -5 42 -13 13z"/>
<path d="M1472 2140 c0 -14 2 -19 5 -12 2 6 2 18 0 25 -3 6 -5 1 -5 -13z"/>
<path d="M1665 2150 c-3 -5 -1 -10 4 -10 6 0 11 5 11 10 0 6 -2 10 -4 10 -3 0
-8 -4 -11 -10z"/>
<path d="M1220 2130 c0 -5 5 -10 10 -10 6 0 10 5 10 10 0 6 -4 10 -10 10 -5 0
-10 -4 -10 -10z"/>
<path d="M1251 2116 c-15 -8 -20 -16 -12 -20 6 -4 11 -2 11 3 0 15 37 14 43
-1 2 -7 8 -10 12 -6 8 7 -12 38 -24 38 -3 -1 -17 -7 -30 -14z"/>
<path d="M1687 2114 c3 -8 0 -14 -6 -14 -6 0 -11 -7 -11 -15 0 -24 17 -17 24
10 4 17 11 23 19 19 7 -4 8 -3 4 1 -13 15 -36 14 -30 -1z"/>
<path d="M1164 2083 c10 -11 37 -12 30 -2 -3 5 -12 9 -21 9 -9 0 -13 -3 -9 -7z"/>
<path d="M2586 2035 c4 -8 8 -15 10 -15 2 0 4 7 4 15 0 8 -4 15 -10 15 -5 0
-7 -7 -4 -15z"/>
<path d="M1225 2030 c3 -5 11 -10 16 -10 6 0 7 5 4 10 -3 6 -11 10 -16 10 -6
0 -7 -4 -4 -10z"/>
<path d="M1710 2002 c0 -14 11 -21 26 -15 8 3 11 9 8 14 -7 11 -34 12 -34 1z"/>
<path d="M906 1966 c-9 -19 -22 -36 -29 -39 -6 -2 -9 -7 -6 -11 4 -4 18 4 32
18 15 14 31 26 37 26 5 0 10 9 10 20 0 32 -26 23 -44 -14z"/>
<path d="M1180 1990 c-8 -5 -12 -11 -9 -14 2 -3 11 -1 19 4 8 5 12 11 9 14 -2
3 -11 1 -19 -4z"/>
<path d="M960 1968 c0 -11 22 -10 40 2 11 8 9 9 -12 8 -16 -1 -28 -6 -28 -10z"/>
<path d="M1050 1970 c0 -5 5 -10 11 -10 5 0 7 5 4 10 -3 6 -8 10 -11 10 -2 0
-4 -4 -4 -10z"/>
<path d="M860 1960 c-12 -8 -10 -10 8 -10 13 0 20 4 17 10 -7 12 -6 12 -25 0z"/>
<path d="M1100 1950 c-13 -8 -12 -10 3 -10 9 0 17 5 17 10 0 12 -1 12 -20 0z"/>
<path d="M1753 1940 c-3 -11 -10 -20 -15 -20 -5 0 -6 -5 -2 -11 5 -8 10 -6 16
5 5 9 15 16 22 16 7 0 13 7 13 15 0 22 -28 18 -34 -5z"/>
<path d="M1770 1900 c-12 -8 -9 -10 13 -10 16 0 26 4 22 10 -8 12 -16 12 -35
0z"/>
<path d="M900 1880 c0 -5 5 -10 11 -10 5 0 7 5 4 10 -3 6 -8 10 -11 10 -2 0
-4 -4 -4 -10z"/>
<path d="M1723 1875 c-3 -9 -3 -18 -1 -21 3 -3 8 4 11 16 6 23 -1 27 -10 5z"/>
<path d="M1873 1863 c9 -2 25 -2 35 0 9 3 1 5 -18 5 -19 0 -27 -2 -17 -5z"/>
<path d="M935 1850 c-3 -5 -1 -10 4 -10 6 0 11 5 11 10 0 6 -2 10 -4 10 -3 0
-8 -4 -11 -10z"/>
<path d="M1930 1851 c0 -14 18 -23 31 -15 8 4 7 9 -2 15 -18 11 -29 11 -29 0z"/>
<path d="M845 1824 c-20 -15 -20 -16 4 -12 14 2 26 9 29 16 5 16 -9 15 -33 -4z"/>
<path d="M1190 1830 c0 -6 7 -10 15 -10 8 0 15 2 15 4 0 2 -7 6 -15 10 -8 3
-15 1 -15 -4z"/>
<path d="M1910 1830 c0 -5 5 -10 10 -10 6 0 10 5 10 10 0 6 -4 10 -10 10 -5 0
-10 -4 -10 -10z"/>
<path d="M2019 1828 c-1 -2 -3 -13 -4 -25 -1 -14 2 -20 11 -16 7 2 10 12 7 20
-5 13 -2 13 20 -2 23 -15 27 -15 27 -2 0 8 -7 18 -16 21 -16 6 -43 8 -45 4z"/>
<path d="M750 1813 c-8 -2 -21 -7 -29 -9 -11 -3 -11 -8 -3 -16 8 -8 15 -8 25
0 9 8 27 9 48 5 31 -6 33 -5 20 10 -13 17 -32 20 -61 10z"/>
<path d="M1300 1809 c0 -5 5 -7 10 -4 6 3 10 8 10 11 0 2 -4 4 -10 4 -5 0 -10
-5 -10 -11z"/>
<path d="M1725 1800 c-3 -5 1 -10 10 -10 9 0 13 5 10 10 -3 6 -8 10 -10 10 -2
0 -7 -4 -10 -10z"/>
<path d="M2093 1776 c4 -14 47 -21 47 -8 0 5 -11 12 -25 15 -16 3 -24 0 -22
-7z"/>
<path d="M711 1759 c-48 -14 -32 -21 29 -13 34 4 47 10 38 15 -16 10 -23 10
-67 -2z"/>
<path d="M1640 1760 c0 -5 15 -10 33 -10 24 0 28 3 17 10 -20 13 -50 13 -50 0z"/>
<path d="M998 1753 c7 -3 16 -2 19 1 4 3 -2 6 -13 5 -11 0 -14 -3 -6 -6z"/>
<path d="M1887 1748 c17 -28 11 -38 -25 -38 -49 0 -100 -20 -105 -42 -3 -10
-1 -16 3 -13 5 3 11 1 14 -4 3 -5 -8 -14 -24 -20 -41 -14 -40 -35 1 -27 29 5
30 5 18 -11 -8 -10 -20 -24 -26 -31 -7 -7 -13 -28 -13 -47 0 -28 -23 -88 -40
-105 -3 -3 -6 -26 -8 -52 -2 -38 0 -48 12 -48 9 0 16 6 16 13 0 20 30 43 75
57 48 15 79 41 95 81 10 24 18 29 45 29 44 0 65 -9 65 -26 0 -8 7 -17 15 -20
8 -4 12 -11 8 -17 -4 -6 0 -8 10 -4 8 3 21 0 27 -8 8 -10 8 -14 -2 -18 -9 -4
-8 -6 3 -6 18 -1 33 -27 23 -42 -3 -5 -1 -9 3 -9 15 0 9 -50 -7 -61 -10 -7
-11 -12 -3 -15 6 -3 21 -14 34 -25 26 -22 24 -22 48 -7 16 9 26 6 62 -20 24
-18 39 -32 34 -32 -4 0 0 -8 9 -19 9 -10 18 -31 19 -47 1 -15 9 -30 17 -32 12
-4 13 -2 3 9 -7 9 -8 20 -4 28 7 11 10 11 17 0 12 -20 14 -42 5 -54 -13 -16
-21 -84 -10 -90 5 -4 9 -16 9 -28 0 -21 -1 -21 -18 4 -17 27 -40 28 -55 3 -13
-22 -24 -17 -48 24 -12 20 -30 46 -41 58 -10 11 -20 42 -23 69 -3 27 -10 54
-16 59 -9 8 -10 8 -5 -1 9 -16 -6 -17 -21 -2 -14 14 5 39 24 32 7 -3 13 0 13
5 0 12 -18 25 -40 29 -47 9 -53 8 -55 -17 -1 -14 2 -30 6 -36 6 -8 2 -13 -12
-17 -14 -4 -20 -11 -16 -21 4 -10 1 -16 -8 -16 -19 0 -19 -5 1 -34 8 -14 11
-27 6 -30 -13 -8 -2 -58 12 -53 13 4 74 -69 82 -100 4 -15 12 -20 25 -18 13 3
19 -2 19 -15 0 -29 16 -32 29 -6 l13 23 34 -34 c19 -18 34 -29 34 -23 0 5 5
10 11 10 6 0 8 -9 4 -20 -3 -11 -2 -20 3 -20 5 0 9 -28 9 -62 1 -46 -2 -57 -9
-44 -6 10 -8 31 -6 46 2 16 1 27 -4 24 -4 -3 -8 -20 -8 -37 -1 -31 -1 -31 -16
-12 -14 19 -15 16 -10 -31 5 -47 4 -52 -20 -63 -14 -6 -29 -9 -34 -6 -5 3 -11
-4 -15 -15 -3 -11 -13 -20 -20 -20 -8 0 -12 -6 -10 -12 7 -19 -19 -83 -35 -86
-8 -2 -20 -12 -28 -23 -7 -11 -23 -29 -35 -40 -19 -17 -22 -18 -25 -5 -5 22
-22 20 -22 -3 0 -10 -7 -24 -15 -31 -8 -7 -15 -18 -15 -26 0 -7 -10 -14 -22
-16 -12 -2 -28 -14 -34 -26 -6 -13 -17 -29 -23 -35 -6 -6 -11 -26 -11 -45 0
-18 -4 -31 -9 -28 -5 3 -9 0 -8 -7 0 -6 -1 -25 -2 -42 -1 -23 -3 -27 -11 -15
-7 11 -10 11 -10 2 0 -25 -20 0 -21 26 0 20 -2 23 -7 10 -7 -16 -9 -16 -42 0
-26 12 -35 23 -35 41 0 13 -6 26 -14 29 -11 4 -12 -5 -6 -44 4 -27 11 -51 16
-54 4 -3 6 -20 4 -37 -2 -19 2 -36 11 -43 8 -7 14 -25 14 -41 l0 -29 430 0
c240 0 430 4 430 9 0 5 -7 14 -15 21 -19 16 -19 59 0 66 12 5 15 45 15 255 0
162 -4 248 -10 244 -6 -3 -10 1 -10 9 0 9 5 16 10 16 6 0 10 51 10 133 0 118
-2 136 -19 154 -11 12 -17 24 -14 27 4 3 -2 6 -13 7 -10 0 -13 3 -6 6 6 2 12
9 12 15 0 6 -7 8 -15 4 -8 -3 -15 -1 -15 5 0 5 -12 22 -26 37 -25 25 -26 23
-9 -21 6 -13 3 -16 -9 -11 -9 3 -16 10 -16 16 0 5 -4 7 -9 4 -5 -3 -11 1 -15
9 -3 8 -11 15 -18 15 -15 0 -50 78 -42 91 3 5 12 9 20 9 8 0 14 4 14 9 0 5 10
7 22 3 21 -5 20 -3 -8 34 -45 57 -46 60 -18 73 15 6 23 7 19 1 -3 -6 4 -10 16
-10 l22 0 -21 23 c-12 13 -22 29 -22 35 0 7 -8 12 -18 12 -12 0 -24 15 -36 45
-10 24 -22 42 -27 40 -4 -3 -11 0 -14 6 -4 5 -14 8 -22 5 -8 -3 -11 -1 -8 4 3
5 -3 18 -15 30 -22 22 -28 39 -7 22 7 -6 27 -14 45 -17 32 -5 33 -5 17 18 -8
13 -12 27 -8 32 5 4 -2 5 -15 2 -19 -4 -22 -2 -17 13 5 15 2 17 -15 13 -11 -3
-20 0 -20 6 0 6 6 11 14 11 10 0 6 9 -12 28 -15 15 -30 26 -34 24 -5 -2 -8 2
-8 7 0 14 27 14 35 0 4 -6 14 -7 24 -3 9 4 26 6 39 5 15 0 22 4 19 12 -2 6
-12 11 -21 11 -9 -1 -16 5 -16 13 0 8 -8 13 -19 11 -26 -4 -113 52 -107 69 3
7 1 13 -4 13 -17 0 -25 -5 -23 -12 2 -4 -4 -5 -13 -1 -13 5 -13 7 -2 14 8 6 9
9 1 9 -6 0 -20 3 -30 7 -16 6 -16 5 -4 -10 7 -9 10 -17 5 -17 -5 0 -1 -6 8
-13 25 -20 7 -43 -21 -28 -12 7 -19 16 -16 21 3 4 -1 11 -7 13 -10 4 -10 7 0
15 10 7 7 13 -12 25 -28 19 -66 23 -66 7 0 -5 6 -10 14 -10 8 0 18 -5 21 -10
4 -7 -6 -9 -29 -7 -20 2 -36 0 -36 -4 0 -5 11 -9 24 -9 25 0 43 -15 29 -23 -9
-5 -49 14 -108 51 -20 12 -33 16 -28 10z m193 -94 c0 -9 -7 -14 -17 -12 -25 5
-28 28 -4 28 12 0 21 -6 21 -16z m70 -9 c0 -18 -45 -21 -56 -4 -4 8 0 9 15 4
12 -4 21 -2 21 4 0 6 5 11 10 11 6 0 10 -7 10 -15z m73 -6 c26 -29 15 -33 -27
-11 -23 12 -32 22 -24 25 24 10 33 7 51 -14z m-325 -28 c6 -1 12 -6 12 -12 0
-6 10 -19 23 -29 32 -26 17 -33 -33 -15 -23 8 -60 15 -81 15 -22 0 -39 5 -39
10 0 6 4 10 10 10 5 0 7 6 4 14 -5 13 4 14 104 7z m197 -1 c3 -5 1 -10 -4 -10
-6 0 -11 5 -11 10 0 6 2 10 4 10 3 0 8 -4 11 -10z m123 -18 c5 -17 -33 -15
-47 1 -6 8 -8 16 -5 20 8 8 47 -8 52 -21z m-188 -2 c0 -5 -2 -10 -4 -10 -3 0
-8 5 -11 10 -3 6 -1 10 4 10 6 0 11 -4 11 -10z m30 -15 c0 -8 -2 -15 -4 -15
-2 0 -6 7 -10 15 -3 8 -1 15 4 15 6 0 10 -7 10 -15z m150 -25 c0 11 3 11 12 2
10 -9 9 -15 -3 -27 -13 -13 -17 -11 -34 18 l-18 32 21 -19 c16 -14 22 -15 22
-6z m-365 -10 c-3 -5 -12 -10 -18 -10 -7 0 -6 4 3 10 19 12 23 12 15 0z m205
-10 c0 -5 -4 -10 -9 -10 -6 0 -13 5 -16 10 -3 6 1 10 9 10 9 0 16 -4 16 -10z
m-202 -32 c14 -19 -3 -56 -33 -70 -33 -15 -75 3 -75 32 0 16 5 19 30 14 19 -4
30 -2 30 5 0 6 -6 11 -12 11 -19 0 14 20 33 20 9 0 21 -6 27 -12z m209 -304
c-3 -3 -12 -4 -19 -1 -8 3 -5 6 6 6 11 1 17 -2 13 -5z m247 -30 c4 -10 1 -14
-6 -12 -15 5 -23 28 -10 28 5 0 13 -7 16 -16z m236 -265 c0 -11 4 -19 10 -19
5 0 7 7 4 15 -4 8 -1 15 5 15 13 0 15 -46 2 -54 -12 -8 -38 25 -43 57 -4 22
-3 25 8 16 8 -6 14 -20 14 -30z m-46 8 c8 -12 18 -35 22 -52 6 -26 5 -28 -8
-17 -13 10 -15 8 -10 -15 2 -16 1 -25 -3 -21 -4 4 -11 28 -16 54 -5 26 -16 52
-25 58 -13 10 -13 12 6 13 11 1 27 -8 34 -20z m-41 -114 c3 -13 2 -25 -3 -28
-9 -5 -40 71 -32 79 7 8 27 -23 35 -51z m-186 -265 c-2 -18 -4 -6 -4 27 0 33
2 48 4 33 2 -15 2 -42 0 -60z m-67 -38 c0 -5 -4 -10 -10 -10 -5 0 -10 5 -10
10 0 6 5 10 10 10 6 0 10 -4 10 -10z m10 -56 c-18 -21 -24 -10 -8 15 7 12 14
17 16 11 2 -6 -2 -17 -8 -26z"/>
<path d="M800 1740 c0 -5 5 -10 10 -10 6 0 10 5 10 10 0 6 -4 10 -10 10 -5 0
-10 -4 -10 -10z"/>
<path d="M730 1730 c0 -5 10 -10 23 -10 18 0 19 2 7 10 -19 13 -30 13 -30 0z"/>
<path d="M1105 1720 c28 -12 37 -12 30 0 -3 6 -16 10 -28 9 -21 0 -21 -1 -2
-9z"/>
<path d="M2285 1710 c3 -5 16 -15 28 -21 22 -12 22 -12 3 10 -19 21 -43 30
-31 11z"/>
<path d="M440 1690 c-13 -8 -12 -10 3 -10 9 0 17 5 17 10 0 12 -1 12 -20 0z"/>
<path d="M1690 1679 c0 -5 5 -7 10 -4 6 3 10 8 10 11 0 2 -4 4 -10 4 -5 0 -10
-5 -10 -11z"/>
<path d="M2249 1666 c30 -32 33 -32 22 -3 -5 12 -17 24 -27 26 -17 3 -16 0 5
-23z"/>
<path d="M2330 1661 c0 -14 79 -98 80 -84 0 6 -3 13 -7 15 -5 2 -23 20 -40 41
-18 21 -33 33 -33 28z"/>
<path d="M1291 1605 c-1 -5 6 -23 14 -38 15 -30 23 -86 13 -102 -3 -6 -2 -19
3 -30 6 -16 8 -14 8 12 1 17 5 34 9 37 15 9 35 -40 27 -64 -6 -19 -4 -22 10
-17 9 4 20 7 24 7 5 0 7 12 5 28 -2 15 -1 21 2 14 12 -26 23 1 17 43 -4 31 -2
45 6 45 6 0 11 -4 11 -9 0 -5 7 -11 14 -14 10 -4 13 -1 9 9 -3 8 -18 18 -33
21 -17 3 -30 13 -34 26 -4 17 -8 18 -20 8 -12 -10 -15 -9 -20 6 -3 10 -4 5 -2
-11 l4 -30 -19 25 c-17 22 -19 23 -19 4 -1 -16 -4 -13 -15 10 -7 17 -14 26
-14 20z m99 -51 c0 -8 -5 -12 -10 -9 -6 4 -8 11 -5 16 9 14 15 11 15 -7z m-45
-24 c3 -5 1 -10 -4 -10 -6 0 -11 5 -11 10 0 6 2 10 4 10 3 0 8 -4 11 -10z m45
-32 c0 -18 -2 -20 -9 -8 -6 8 -7 18 -5 22 9 14 14 9 14 -14z"/>
<path d="M1410 1581 c0 -6 5 -13 10 -16 6 -3 10 1 10 9 0 9 -4 16 -10 16 -5 0
-10 -4 -10 -9z"/>
<path d="M1231 1524 c0 -11 3 -14 6 -6 3 7 2 16 -1 19 -3 4 -6 -2 -5 -13z"/>
<path d="M1258 1515 c-6 -14 -16 -25 -22 -25 -6 0 -3 -7 8 -15 11 -8 16 -20
12 -30 -3 -10 -2 -14 5 -10 5 4 8 19 5 33 -6 30 1 46 23 54 12 3 12 6 -2 11
-13 5 -21 0 -29 -18z"/>
<path d="M2352 1508 c5 -15 28 -23 28 -10 0 5 -7 13 -16 16 -10 4 -14 1 -12
-6z"/>
<path d="M1690 1480 c0 -5 5 -10 11 -10 5 0 7 5 4 10 -3 6 -8 10 -11 10 -2 0
-4 -4 -4 -10z"/>
<path d="M1552 1430 c0 -14 2 -19 5 -12 2 6 2 18 0 25 -3 6 -5 1 -5 -13z"/>
<path d="M450 1400 c0 -5 5 -10 10 -10 6 0 10 5 10 10 0 6 -4 10 -10 10 -5 0
-10 -4 -10 -10z"/>
<path d="M870 1336 c0 -2 7 -7 16 -10 8 -3 12 -2 9 4 -6 10 -25 14 -25 6z"/>
<path d="M890 1291 c0 -5 9 -11 20 -14 24 -6 27 8 4 17 -21 8 -24 8 -24 -3z"/>
<path d="M2580 1290 c-1 -8 -3 -25 -4 -38 -2 -12 3 -27 11 -33 10 -9 13 -6 12
17 -1 33 -17 78 -19 54z"/>
<path d="M815 1280 c-3 -5 -2 -10 4 -10 5 0 13 5 16 10 3 6 2 10 -4 10 -5 0
-13 -4 -16 -10z"/>
<path d="M2450 1282 c0 -19 40 -36 54 -22 8 8 7 10 -7 4 -12 -4 -16 -2 -14 7
2 8 2 10 -1 6 -2 -4 -10 -3 -18 4 -10 8 -14 8 -14 1z"/>
<path d="M1926 1264 c-4 -9 -5 -19 -2 -21 6 -6 46 20 46 29 0 15 -38 8 -44 -8z"/>
<path d="M2536 1254 c-20 -20 -20 -21 4 -27 16 -4 19 0 18 19 -3 28 -2 28 -22
8z"/>
<path d="M928 1233 c7 -3 16 -2 19 1 4 3 -2 6 -13 5 -11 0 -14 -3 -6 -6z"/>
<path d="M1878 1233 c7 -3 16 -2 19 1 4 3 -2 6 -13 5 -11 0 -14 -3 -6 -6z"/>
<path d="M727 1223 c-13 -13 -7 -32 8 -27 8 4 15 12 15 20 0 15 -12 19 -23 7z"/>
<path d="M965 1220 c-3 -5 -1 -10 4 -10 6 0 11 5 11 10 0 6 -2 10 -4 10 -3 0
-8 -4 -11 -10z"/>
<path d="M1920 1214 c0 -8 5 -12 10 -9 6 3 10 10 10 16 0 5 -4 9 -10 9 -5 0
-10 -7 -10 -16z"/>
<path d="M1020 1194 c-13 -32 -13 -44 0 -44 6 0 10 -5 10 -11 0 -6 -6 -9 -12
-6 -19 7 -48 -12 -48 -30 0 -13 3 -14 12 -5 17 17 33 15 18 -3 -23 -27 1 -37
27 -10 14 14 32 25 39 25 17 0 17 0 -2 -38 -10 -20 -13 -40 -8 -54 5 -13 7
-26 6 -30 -1 -5 4 -8 12 -8 16 0 27 43 15 62 -4 7 -4 17 1 23 4 5 9 13 9 18 1
4 1 8 2 10 8 30 5 57 -7 57 -8 0 -14 -3 -14 -8 0 -4 -10 -13 -21 -21 -20 -12
-21 -11 -17 6 3 10 9 27 14 37 6 15 4 18 -8 14 -11 -5 -14 -1 -10 18 6 32 -6
31 -18 -2z"/>
<path d="M1856 1195 c-9 -14 -23 -25 -31 -25 -20 0 -8 -27 15 -33 22 -6 40 10
33 29 -3 8 2 17 11 20 9 3 16 12 16 20 0 23 -26 16 -44 -11z"/>
<path d="M1765 1142 c-7 -18 -7 -18 23 -26 18 -6 22 -3 22 12 0 24 -36 36 -45
14z"/>
<path d="M1770 1090 c0 -5 5 -10 11 -10 5 0 7 5 4 10 -3 6 -8 10 -11 10 -2 0
-4 -4 -4 -10z"/>
<path d="M1700 1077 c0 -8 7 -20 15 -27 12 -10 15 -10 15 3 0 8 -7 20 -15 27
-12 10 -15 10 -15 -3z"/>
<path d="M1697 1044 c-3 -3 3 -16 14 -27 11 -12 15 -23 9 -25 -12 -4 -3 -22
11 -22 16 0 10 36 -10 58 -10 12 -21 19 -24 16z"/>
<path d="M2570 982 c0 -5 4 -12 9 -17 5 -6 11 -19 14 -30 3 -13 5 -10 6 11 1
20 -5 34 -14 38 -8 3 -15 2 -15 -2z"/>
<path d="M919 798 c-7 -25 -3 -48 8 -48 15 0 18 36 3 45 -5 3 -10 5 -11 3z"/>
<path d="M1175 790 c4 -6 11 -8 16 -5 14 9 11 15 -7 15 -8 0 -12 -5 -9 -10z"/>
<path d="M970 751 c0 -5 9 -7 20 -4 11 3 20 7 20 9 0 2 -9 4 -20 4 -11 0 -20
-4 -20 -9z"/>
<path d="M1661 214 c0 -11 3 -14 6 -6 3 7 2 16 -1 19 -3 4 -6 -2 -5 -13z"/>
<path d="M1705 27 c-4 -10 -5 -21 -1 -24 10 -10 18 4 13 24 -4 17 -4 17 -12 0z"/>
</g>
</svg>
